<?xml version="1.0" standalone="no"?><!DOCTYPE svg PUBLIC "-//W3C//DTD SVG 1.1//EN" "http://www.w3.org/Graphics/SVG/1.1/DTD/svg11.dtd"><svg t="1763802316490" class="icon" viewBox="0 0 1024 1024" version="1.1" xmlns="http://www.w3.org/2000/svg" p-id="8265" xmlns:xlink="http://www.w3.org/1999/xlink" width="40" height="40"><path d="M207.425641 309.151726a35.86188 35.86188 0 1 0 71.715009 0 35.86188 35.86188 0 0 0-71.719385 0z m144.716581-57.77723a29.976068 29.976068 0 0 0 41.546393 28.129367 29.958564 29.958564 0 0 0 9.434804-49.003213 29.967316 29.967316 0 0 0-50.981197 20.873846z m259.938462 362.504752c-1.719795-1.536-4.209778-1.150906-5.745778 0.568889-1.536 1.728547-1.150906 4.222906 0.577641 5.758906 0 0 2.879453 2.481231 7.662496 6.712889 0.770188 0.761436 1.728547 0.958359 2.686906 0.958359a3.776547 3.776547 0 0 0 3.063248-1.343453 3.977846 3.977846 0 0 0-0.371966-5.758906c-4.800547-4.214154-7.68-6.712889-7.872547-6.896684z m22.637401 20.703179c-1.728547-1.527248-4.222906-1.527248-5.758906 0.192547-1.527248 1.728547-1.527248 4.222906 0.192547 5.758906 4.993094 4.796171 9.784889 9.395419 14.19159 14.003419 0.765812 0.77894 1.789812 1.255932 2.879453 1.334701a4.231658 4.231658 0 0 0 2.879453-1.142154c1.527248-1.536 1.719795-4.227282 0.192547-5.763282-4.800547-4.791795-9.592342-9.58359-14.576684-14.375385v-0.008752z m141.718975 75.946667a201.342906 201.342906 0 0 1-19.180308 4.030359c-2.297436 0.385094-3.842188 2.489983-3.448342 4.599248a4.078496 4.078496 0 0 0 4.021607 3.448342h0.577641c6.327795-0.958359 13.233231-2.485607 20.134291-4.214154a4.170393 4.170393 0 0 0 2.879453-4.984342 4.131009 4.131009 0 0 0-4.988718-2.879453h0.004376z m73.259761-30.295521a263.408684 263.408684 0 0 1-17.841231 9.014701 3.938462 3.938462 0 0 0-2.31494 3.833435 3.938462 3.938462 0 0 0 0.402598 1.527248 3.894701 3.894701 0 0 0 3.640889 2.301812c0.573265 0 1.150906-0.192547 1.728547-0.380718a412.033094 412.033094 0 0 0 18.020649-9.202872 4.284171 4.284171 0 0 0 1.728547-5.566358 3.85094 3.85094 0 0 0-3.907829-2.039248 3.807179 3.807179 0 0 0-1.465983 0.512h0.008753z m-35.866257 17.254837a278.733675 278.733675 0 0 1-18.607043 7.093607 4.07412 4.07412 0 0 0-1.015247 7.159248 3.938462 3.938462 0 0 0 2.367452 0.708923c0.376342 0 0.958359 0 1.334701-0.192547a345.420581 345.420581 0 0 0 18.983385-7.281778 3.982222 3.982222 0 0 0 2.205538-2.236171 3.982222 3.982222 0 0 0-0.091897-3.137641 3.885949 3.885949 0 0 0-5.176889-2.113641z m70.384684-37.200957a598.646154 598.646154 0 0 1-17.071043 10.353778c-1.912342 1.150906-2.68253 3.640889-1.536 5.557607a4.021607 4.021607 0 0 0 3.452718 2.113641c0.743932-0.013128 1.470359-0.210051 2.113641-0.577641 5.561983-3.255795 11.504684-6.717265 17.254838-10.349402a3.999726 3.999726 0 0 0 1.829196-2.503111 4.065368 4.065368 0 0 0-0.481367-3.058872c-1.155282-1.921094-3.640889-2.879453-5.561983-1.536z m-146.519522 56.000547h-0.962735c-6.515966 0-12.65559-0.577641-18.213196-1.728547-2.306188-0.385094-4.415453 0.962735-4.800547 3.255795-0.376342 2.306188 0.958359 4.406701 3.264547 4.800547 6.135248 1.343453 12.848137 1.921094 19.941743 1.921094h0.962736a4.056615 4.056615 0 0 0 4.021606-4.034735 4.157265 4.157265 0 0 0-2.590632-3.916581 4.205402 4.205402 0 0 0-1.623522-0.297573z m266.9533-110.465094l1.343453-2.686906h1.343453a11.110838 11.110838 0 0 0 10.279384-6.870427 11.123966 11.123966 0 1 0-21.407726-4.249163c0 2.678154 0.967111 5.369436 2.686906 7.281778l-1.921094 3.837812a38.294974 38.294974 0 0 0-6.708513-0.577641 33.993299 33.993299 0 0 0-20.331214 6.721641l-6.135248-5.561983c0.770188-1.536 1.150906-3.072 1.150906-4.796171a11.115214 11.115214 0 0 0-18.882735-7.675624 11.128342 11.128342 0 0 0-3.365196 7.675624 11.128342 11.128342 0 0 0 11.119589 11.11959c1.536 0 2.883829-0.376342 4.034735-0.761436l5.942701 5.561983a27.411692 27.411692 0 0 0-3.457094 4.796171 33.398154 33.398154 0 0 0-4.599248-1.352205c-0.192547 0-0.385094 0-0.385094-0.188171a44.27706 44.27706 0 0 0-8.822153-0.962735c-17.254838 0-31.638974 15.920137-33.560069 25.705025a3.837812 3.837812 0 0 0-3.448342 0.568889c-2.879453 1.921094-5.758906 3.837812-8.441436 5.758906a4.100376 4.100376 0 0 0-1.80294 2.625641 4.078496 4.078496 0 0 0 0.652034 3.120137 4.297299 4.297299 0 0 0 3.457094 1.916718 3.662769 3.662769 0 0 0 2.297436-0.765812 201.242256 201.242256 0 0 0 8.244513-5.561983c3.448342 9.202872 14.760479 20.138667 28.378804 22.055385h0.38947c1.14653 0.192547 2.489983 0.192547 3.640889 0.192547a39.345231 39.345231 0 0 0 18.602666-4.599248c0.38947-0.201299 0.573265-0.385094 0.967111-0.573265 1.352205-0.787692 2.630017-1.68041 3.82906-2.691282a35.039179 35.039179 0 0 0 20.138667 6.520342 34.610325 34.610325 0 0 0 34.518427-34.509675c0.192547-13.618325-8.056342-25.512479-19.749196-31.074462z m-51.016205-3.837812a3.001983 3.001983 0 0 1-1.177163-0.227556 3.006359 3.006359 0 0 1-1.890461-2.835692c0-1.728547 1.347829-3.072 3.067624-3.072 1.724171 0 3.072 1.343453 3.072 3.072a3.010735 3.010735 0 0 1-1.890462 2.840069 3.05012 3.05012 0 0 1-1.181538 0.223179z m53.501811-12.848137a3.05012 3.05012 0 0 1 3.072 3.072 2.966974 2.966974 0 0 1-0.888341 2.183658 3.028239 3.028239 0 0 1-2.183659 0.87959 3.019487 3.019487 0 0 1-3.072-3.063248 3.001983 3.001983 0 0 1 1.894838-2.84882 3.028239 3.028239 0 0 1 1.177162-0.22318z m-86.103521 56.000547c0-2.113641 3.457094-7.863795 8.822154-12.467419-0.363214 1.255932-0.621402 2.53812-0.765812 3.833436-1.150906 7.097983-0.577641 15.72759 2.494359 23.201915-6.520342-4.599248-10.550701-11.11959-10.550701-14.567932z m25.503727 19.749197h-1.527248c-7.863795-6.717265-9.207248-18.213197-7.863795-27.039727 1.142154-7.286154 3.833436-10.550701 4.599248-10.927042a3.413333 3.413333 0 0 0 1.343453-0.958359c1.150906-0.201299 2.297436-0.393846 3.448342-0.393847h0.201299c-2.498735 4.800547-4.034735 11.11959-3.842188 17.26359 0.385094 8.82653 4.21853 16.296479 10.738872 21.097026a28.65012 28.65012 0 0 1-7.089231 0.958359h-0.008752z m16.497777-4.800547c-9.58359-4.012855-11.889778-11.692855-12.082324-17.63118-0.385094-7.487453 2.498735-13.613949 4.599247-15.727589 0.577641 0.192547 0.962735 0.385094 1.536 0.385094a34.107077 34.107077 0 0 0-1.536 9.977436c0 8.428308 3.072 16.292103 8.248889 22.431726a2.686906 2.686906 0 0 1-0.765812 0.573265v-0.008752z m27.039727 3.457094a26.317675 26.317675 0 0 1-26.273915-26.269539 26.431453 26.431453 0 0 1 26.273915-26.273914c14.375385 0 26.269538 11.894154 26.269538 26.273914a26.308923 26.308923 0 0 1-26.269538 26.269539z" fill="#787878" p-id="8266"></path><path d="M972.633709 631.904274a5.737026 5.737026 0 1 0 11.48718 0.017504 5.758906 5.758906 0 0 0-5.737026-5.75453 5.745778 5.745778 0 0 0-5.750154 5.737026z m24.733539-2.489983a5.767658 5.767658 0 0 0 5.75453 5.75453 5.758906 5.758906 0 1 0-5.75453-5.75453z m-214.742427-401.053539c5.255658-0.350085 23.805812 9.824274 35.222974 27.936821 6.056479 9.767385 11.487179 24.540991 2.958222 39.778461a8.813402 8.813402 0 0 0-0.402598 7.627487 8.809026 8.809026 0 0 0 5.723897 5.058735c3.70653 0.918974 7.592479-0.595145 9.478564-4.056615 9.938051-17.578667 8.817778-38.098051-3.325812-57.440273-12.589949-20.055521-36.513915-36.934017-50.9987-35.975659a8.708376 8.708376 0 0 0-8.056342 9.159112c0.687043 4.717402 4.774291 8.209504 9.399795 7.911931z m16.935384-42.504752c5.496342 0.336957 38.102427 10.480684 57.470906 36.562051 14.384137 19.473504 18.230701 43.148034 11.53094 70.205265-1.164034 4.673641 1.623521 9.277265 6.10024 10.401915 4.472342 1.102769 9.290393-1.623521 10.393162-6.104616 8.248889-32.466051 3.330188-60.958632-14.327248-84.751316-22.191043-29.669744-58.801231-42.872342-70.424068-43.480615-4.721778-0.135658-8.695248 3.422085-8.839658 8.139487a8.739009 8.739009 0 0 0 8.095726 9.027829zM197.238154 653.193846c-58.175453-17.145436-48.014222-87.81894-47.502222-90.803419a8.708376 8.708376 0 0 0-7.062975-9.89429 8.730256 8.730256 0 0 0-9.889914 7.071726c-0.240684 0.792068-3.408957 22.151658 1.951726 46.023111 7.448068 32.776752 27.328547 54.959043 57.501539 63.873094 0.805197 0.231932 1.395966 0.249436 2.205538 0.280069a8.563966 8.563966 0 0 0 8.445812-6.12212 8.078222 8.078222 0 0 0-5.645128-10.428171z" fill="#787878" p-id="8267"></path><path d="M665.792547 722.642051l14.182838-16.296478 0.577641 1.142153c1.728547 2.306188 3.649641 4.406701 5.561983 6.327795l-20.322462 8.82653z m152.072752-174.320683l32.032821-12.848137-141.342633 168.364854-14.003419 6.139624a40.430496 40.430496 0 0 1-7.469948-7.675624 4.450462 4.450462 0 0 0-2.306188-1.536l133.089367-152.45347v0.008753z m-13.040684-120.626325v107.778188l-228.400136 68.46359-5.942701-121.400889 234.342837-54.840889z m-101.437265-178.928684c40.076034 0 72.668991 32.601709 72.668992 72.68212 0 40.08041-32.597333 72.686496-72.677744 72.686495s-72.68212-32.606085-72.682119-72.686495c0-40.08041 32.601709-72.68212 72.682119-72.68212h0.008752z m-82.47576 106.242188c13.233231 32.409162 45.257299 55.422906 82.467008 55.422906 1.916718 0 4.030359 0 5.942701-0.192547l13.233231 19.94612-162.430906 37.975521a8.262017 8.262017 0 0 0-6.332171 8.432684l5.176889 106.622906-130.406838-213.057641 192.350086-15.149949z m-274.239453 217.665641c0-24.160274-9.58359-46.027487-25.31118-61.938872l92.825163-133.093743 130.774427 213.639658-86.681162-50.241641a8.463316 8.463316 0 0 0-10.349402 1.719795l-126.000137 147.858598-21.473367-40.08041a88.799179 88.799179 0 0 0 46.215658-77.863385z m-89.158017 72.686496c-40.084786 0-72.686496-32.610462-72.686496-72.686496 0-40.08041 32.601709-72.68212 72.686496-72.68212 40.08041 0 72.677744 32.601709 72.677743 72.68212 0 40.076034-32.601709 72.686496-72.677743 72.686496z m-233.638291 165.463521c24.317812-9.697368 31.949675-16.375248 45.427966-26.287043 39.441504-28.81641 59.168821-73.07159 59.16882-73.071589 13.80212-38.106803 10.134974-78.979282-10.878906-121.571556l0.665163-0.398222-1.947351-3.238291c-32.575453-54.482051-69.491966-116.241504-69.491965-187.593299 0-155.201641 126.262701-281.464342 281.459965-281.464342 131.531487 0 241.265778 82.401368 272.427761 222.934428l15.797607-1.229676c-15.311863-69.080615-46.136889-119.116581-96.719863-164.750222-54.193231-48.90694-120.416274-74.752-191.505505-74.752-79.933265 0-155.087863 31.126974-211.613538 87.65265C60.144684 243.576342 29.013333 318.735316 29.013333 398.664205c0.004376 72.647111 34.706598 134.152752 67.181402 188.621675l-0.048137 0.026257c1.229675 2.240547 2.41559 4.446085 3.518359 6.585983 20.48 39.467761 24.562872 76.957538 12.095453 111.414701C86.921846 774.030222 1.417846 807.05641 0.586393 807.40212c0 0 37.616684 45.607385 66.376205 61.838222 34.833504 19.661675 121.501538 63.199179 337.438633 63.199179s390.831043-43.15241 390.831043-96.273504c-0.75706-31.070085-60.205949-58.678701-152.637265-76.318632l0.949606-9.592342 73.640479-32.216616c1.150906-0.573265 2.113641-1.343453 3.072-2.301812l163.393641-194.638769a8.117607 8.117607 0 0 0 0.380718-9.986188 8.121983 8.121983 0 0 0-9.587966-2.879453l-52.928547 21.105778V417.336889a8.073846 8.073846 0 0 0-3.072-6.319043 8.161368 8.161368 0 0 0-6.905436-1.544752l-71.526837 16.685949-12.664342-18.983385c37.599179-10.358154 65.400342-44.880957 65.400342-85.919726 0-49.099487-39.887863-88.982974-88.987351-88.982975-49.086359 0-88.974222 39.887863-88.974222 88.982975 0 5.942701 0.577641 11.894154 1.719795 17.648683l-71.141744 5.553231-15.521914 0.398222-114.477949 8.817778c-0.192547 0-0.577641 0.192547-0.770188 0.192547h-0.577641l-1.724171 0.573265a4.179145 4.179145 0 0 0-1.531624 0.962735l-1.531624 1.531624-99.144205 141.920274a87.980855 87.980855 0 0 0-51.2-16.300855c-49.108239 0-88.98735 39.887863-88.98735 88.974222 0 49.095111 39.887863 88.982974 88.978598 88.982974a88.934838 88.934838 0 0 0 27.805538-4.4067l25.118633 46.793299-42.951111 50.237265c-1.728547 1.921094-2.29306 4.415453-1.728547 6.914188 0.577641 2.494359 18.432 9.159111 16.033914 10.078085-115.17812 44.513368-242.753641 42.447863-259.282051 40.697436z m262.966701-53.856273l39.502769-46.408206 0.385094-0.385094 129.255932-151.503863 100.111316 57.921641-164.929641 191.584274-104.316718-51.208752h-0.008752z m334.454154 55.422906l-226.479043 74.218119 6.319043-61.943248 225.345641-68.463589-5.185641 56.188718z m-203.281505-9.97306l155.529847-180.648479 214.790564-64.240684-112.381812 128.678291-0.192547-0.196923a272.926632 272.926632 0 0 0-12.848137-15.723214 3.99535 3.99535 0 0 0-5.758906-0.380718 3.942838 3.942838 0 0 0-1.417846 2.796308 3.999726 3.999726 0 0 0 1.041504 2.962598 340.134291 340.134291 0 0 1 12.463043 15.333744c0.385094 0.577641 0.962735 0.962735 1.536 1.155282l-39.695316 45.436718-213.062017 64.827077z" fill="#787878" p-id="8268"></path></svg>